<?xml version="1.0" standalone="no"?>
<!DOCTYPE svg PUBLIC "-//W3C//DTD SVG 20010904//EN"
 "http://www.w3.org/TR/2001/REC-SVG-20010904/DTD/svg10.dtd">
<svg version="1.0" xmlns="http://www.w3.org/2000/svg"
 width="584.000000pt" height="572.000000pt" viewBox="0 0 584.000000 572.000000"
 preserveAspectRatio="xMidYMid meet">

<g transform="translate(0.000000,572.000000) scale(0.100000,-0.100000)"
fill="#000000" stroke="none">
<path d="M5029 3763 c-10 -12 -10 -14 -1 -9 6 4 12 2 12 -3 0 -6 -7 -12 -15
-12 -8 -1 -19 -2 -25 -3 -5 0 -16 -10 -25 -21 -9 -11 -13 -14 -9 -6 5 9 3 12
-4 7 -21 -13 -13 -30 44 -99 31 -38 54 -70 52 -73 -3 -2 -20 1 -38 7 -25 9
-38 9 -51 1 -30 -19 -159 -35 -226 -28 -36 4 -64 2 -68 -3 -3 -6 1 -27 10 -47
20 -48 19 -65 -2 -57 -12 5 -14 3 -8 -8 7 -12 6 -12 -7 -1 -24 19 -55 23 -55
6 0 -8 4 -14 9 -14 5 0 7 -4 3 -9 -3 -6 3 -14 12 -20 10 -6 14 -11 9 -11 -5 0
-2 -7 5 -16 21 -26 20 -47 -2 -41 -23 6 -25 -8 -2 -17 9 -4 21 -2 27 4 5 5 14
10 20 10 5 0 2 -6 -8 -13 -16 -12 -16 -14 -2 -26 14 -12 16 -12 10 3 -3 9 -3
16 0 16 4 0 12 -13 17 -30 6 -16 15 -30 21 -30 5 0 7 -4 4 -9 -3 -5 2 -8 12
-7 12 1 16 -5 14 -19 -2 -16 -1 -17 7 -5 5 8 8 17 5 21 -2 4 3 10 11 13 11 4
14 15 11 33 -4 25 -3 26 7 9 7 -10 22 -34 35 -53 13 -20 21 -40 18 -47 -2 -6
-5 -2 -5 9 -1 17 -3 17 -11 5 -5 -8 -10 -10 -10 -4 0 5 -12 10 -27 10 -26 0
-26 0 13 -34 21 -19 38 -38 36 -44 -1 -5 1 -7 6 -4 14 8 69 -55 91 -104 25
-57 16 -68 -42 -52 -23 7 -49 14 -59 16 -9 3 -30 12 -47 20 -16 9 -39 16 -51
16 -12 0 -19 4 -16 8 3 5 -1 9 -9 9 -8 0 -13 -5 -12 -11 1 -6 -3 -10 -9 -9
-34 6 38 -163 96 -224 11 -13 17 -23 13 -23 -4 0 -3 -4 2 -8 6 -4 18 -19 27
-33 16 -25 16 -28 -3 -45 -26 -24 -15 -32 13 -8 l22 19 -17 -27 c-9 -15 -13
-29 -8 -32 5 -3 11 3 14 14 3 11 10 20 16 20 8 0 6 -11 -5 -31 -8 -17 -11 -28
-5 -25 6 4 12 0 12 -8 3 -37 5 -41 21 -40 11 1 14 -4 11 -13 -3 -8 -1 -18 6
-22 7 -4 13 -18 14 -29 1 -12 5 -22 9 -22 6 0 50 -75 53 -90 2 -12 29 -55 46
-74 11 -11 19 -26 19 -33 0 -7 5 -13 10 -13 6 0 10 -4 10 -9 0 -5 17 -36 38
-68 21 -32 56 -85 76 -117 l38 -60 14 33 c47 112 98 300 129 481 23 127 32
516 15 648 -13 112 -53 319 -76 401 -29 100 -62 193 -72 203 -6 6 -30 12 -54
14 -24 1 -44 4 -45 5 -11 7 -31 3 -47 -10 -14 -11 -17 -12 -11 -2 5 9 3 12 -6
9 -8 -3 -13 -11 -11 -17 1 -7 -2 -10 -8 -6 -6 3 -8 10 -5 15 10 17 -13 19 -26
3z m-223 -423 c1 -6 2 -11 4 -12 5 -8 7 -39 2 -33 -4 4 -8 11 -8 16 -1 5 -3
11 -4 14 -1 3 -3 8 -4 13 -1 4 -5 14 -10 22 -7 12 -7 13 5 2 8 -7 15 -17 15
-22z m-32 -12 c-5 -7 -9 -21 -10 -30 -3 -35 -4 -38 -15 -38 -6 0 -7 5 -2 13 4
6 8 19 8 27 0 8 4 21 8 28 5 6 5 18 1 25 -5 9 -4 9 6 0 7 -7 9 -17 4 -25z
m-40 -4 c3 -8 2 -12 -4 -9 -6 3 -10 10 -10 16 0 14 7 11 14 -7z m112 -9 c-1
-8 -5 -17 -8 -21 -5 -4 -4 16 1 34 3 9 9 -1 7 -13z m-114 -19 c3 2 5 -6 4 -18
-1 -16 5 -24 21 -26 25 -4 38 -28 18 -36 -20 -7 -54 24 -59 56 -3 15 -8 33
-11 40 -4 7 0 5 8 -4 8 -10 16 -15 19 -12z m164 -685 c-3 -5 1 -11 9 -14 9 -4
12 -1 8 9 -10 25 5 15 38 -28 18 -24 24 -36 14 -27 -11 9 -35 24 -53 33 -18 9
-30 21 -27 26 4 6 8 10 11 10 3 0 3 -4 0 -9z m24 -45 c0 -2 -8 -10 -17 -17
-16 -13 -17 -12 -4 4 13 16 21 21 21 13z"/>
<path d="M2001 3737 c-6 -6 -11 -7 -11 -1 0 5 -4 4 -8 -3 -4 -6 -14 -13 -22
-15 -8 -2 -21 -9 -29 -17 -11 -9 -16 -10 -19 -2 -2 6 -10 11 -18 11 -9 0 -12
5 -8 13 6 10 4 10 -7 0 -7 -7 -19 -13 -27 -13 -8 0 -42 -21 -75 -46 -42 -31
-69 -44 -86 -42 -14 1 -32 -2 -40 -6 -9 -6 -12 -5 -8 1 4 6 0 14 -9 17 -10 4
-13 2 -9 -7 4 -6 0 -4 -9 7 -12 14 -13 24 -5 39 9 15 8 18 -2 12 -8 -6 -10 -4
-3 6 4 8 9 20 10 27 3 15 -26 -2 -172 -99 -56 -38 -104 -65 -108 -62 -3 4 -6
2 -6 -3 0 -5 -23 -10 -50 -11 -28 -2 -50 -1 -50 2 0 2 27 25 60 50 97 75 138
126 88 110 -13 -4 -45 -13 -71 -21 -27 -7 -90 -39 -140 -71 -86 -54 -334 -181
-367 -188 -32 -7 -210 -112 -202 -120 4 -4 2 -5 -4 -2 -6 4 -36 -7 -67 -23
-55 -30 -55 -30 -68 -98 -10 -46 -14 -142 -13 -307 1 -266 16 -389 76 -620
212 -818 843 -1480 1653 -1736 229 -73 400 -100 672 -106 209 -5 438 7 454 25
4 4 -2 77 -12 162 -10 85 -24 203 -31 262 -6 59 -15 102 -20 95 -11 -19 -36
20 -44 70 -3 23 -12 47 -18 52 -9 8 -11 3 -8 -19 3 -24 1 -29 -16 -27 -11 0
-18 5 -16 9 3 5 10 5 16 2 7 -4 8 -2 4 5 -4 6 -11 9 -15 6 -17 -10 -39 32 -46
85 -4 30 -20 77 -35 105 -18 32 -32 78 -39 129 -11 79 -21 110 -21 68 0 -12
-6 -22 -12 -22 -9 0 -8 -4 2 -10 11 -7 11 -10 2 -10 -7 0 -10 -4 -7 -10 4 -6
-1 -7 -11 -3 -13 5 -15 3 -9 -8 5 -8 5 -11 -1 -6 -5 5 -9 12 -9 15 -1 4 -6 16
-12 27 -6 12 -18 57 -27 100 -17 93 -45 169 -35 99 0 -4 -4 -10 -9 -13 -5 -3
-17 -30 -26 -58 -10 -29 -23 -56 -29 -59 -7 -4 -9 -4 -5 0 4 5 -2 24 -13 43
-11 19 -16 32 -11 29 5 -3 2 9 -7 28 -13 27 -18 30 -27 18 -10 -13 -13 -13
-23 4 -12 18 -12 17 -7 -4 3 -18 1 -21 -8 -13 -8 7 -16 7 -24 1 -7 -6 -10 -7
-7 -4 3 4 -1 14 -8 22 -10 13 -9 14 2 8 9 -6 8 -1 -3 16 -9 14 -13 29 -9 33 5
5 0 3 -10 -4 -15 -12 -17 -12 -11 4 6 14 4 16 -7 10 -11 -7 -12 -6 -2 6 10 13
10 16 -2 16 -8 0 -15 -4 -15 -9 0 -5 -6 -6 -12 -2 -8 5 -8 2 1 -10 11 -14 12
-17 1 -14 -16 4 -61 -71 -52 -87 3 -5 -3 -3 -13 5 -10 8 -16 10 -12 3 4 -6 3
-14 -2 -17 -5 -4 -11 92 -14 236 -3 134 -8 257 -11 273 -4 17 -8 39 -9 50 -2
11 -8 29 -14 40 -6 11 -11 45 -12 75 0 30 -5 56 -11 58 -7 3 -6 10 2 20 7 9 8
13 2 9 -25 -15 -45 103 -22 130 6 7 6 13 1 13 -5 0 -18 7 -29 16 -10 8 -13 13
-6 9 6 -3 12 -1 12 4 0 6 -4 11 -10 11 -5 0 -9 3 -8 8 3 15 -15 62 -24 62 -6
0 -7 -7 -4 -16 3 -8 2 -13 -3 -10 -4 3 -18 -6 -31 -19 -55 -59 -189 -72 -264
-26 -105 65 -116 273 -20 363 38 35 74 48 134 48 27 0 61 -5 77 -11 60 -22
113 -95 113 -155 0 -55 16 -9 36 107 20 115 20 119 3 135 -11 10 -28 15 -44
12 -30 -6 -30 -4 -7 89 10 40 14 69 9 66 -6 -4 -8 5 -5 21 3 14 1 29 -3 32 -5
3 -14 15 -20 27 -7 12 -8 19 -4 15 4 -4 14 0 22 10 7 9 12 13 11 7 -4 -19 14
-75 23 -75 6 0 7 5 4 10 -4 6 -1 19 7 28 12 15 11 16 -4 4 -15 -12 -16 -10
-13 15 2 15 4 33 4 38 1 6 5 5 9 -2 6 -9 11 -7 20 7 7 11 9 20 4 20 -4 0 -8
10 -9 21 -1 12 -7 27 -14 33 -9 8 -10 7 -4 -3 5 -10 4 -12 -4 -7 -6 4 -9 12
-6 17 4 5 1 17 -5 26 -8 14 -10 7 -8 -32 2 -47 1 -50 -27 -55 l-30 -7 3 69 4
68 -26 -11 c-14 -7 -23 -16 -20 -20 3 -5 -3 -6 -12 -2 -13 5 -15 3 -9 -7 5 -9
4 -11 -4 -6 -6 4 -9 11 -6 16 3 5 1 11 -4 14 -13 8 -18 -112 -6 -127 6 -8 5
-8 -5 1 -7 6 -24 12 -37 12 -22 0 -23 4 -23 67 0 64 0 66 -19 49 -19 -17 -19
-16 -11 21 4 21 10 80 14 130 l6 92 -28 -11 c-15 -7 -41 -22 -59 -35 -17 -13
-36 -23 -42 -23 -17 0 -24 47 -12 81 6 18 11 35 11 39 0 14 -27 19 -39 7z
m413 -424 c4 -10 4 -14 0 -10 -4 4 -13 2 -21 -5 -11 -9 -13 -8 -11 3 2 11 17
28 24 29 1 0 5 -8 8 -17z m-603 -258 c69 -25 119 -83 119 -140 0 -23 -3 -25
-50 -25 -44 0 -52 3 -60 24 -14 37 -55 59 -106 58 -58 0 -94 -24 -94 -61 0
-42 29 -60 135 -87 142 -35 185 -74 185 -169 0 -116 -95 -182 -245 -173 -97 6
-159 41 -187 105 -26 58 -19 73 33 73 36 0 47 -5 73 -36 21 -24 44 -38 72 -44
101 -23 184 52 122 109 -12 12 -54 28 -97 37 -124 27 -183 67 -202 136 -21 78
32 169 112 195 51 16 141 15 190 -2z"/>
<path d="M4801 3207 c-8 -10 -7 -14 2 -14 8 0 14 6 14 14 0 7 -1 13 -2 13 -2
0 -8 -6 -14 -13z"/>
<path d="M2126 2804 c-45 -46 -36 -54 59 -54 94 0 101 6 64 54 -29 36 -86 36
-123 0z"/>
<path d="M2394 2715 c-4 -8 -4 -23 -2 -33 4 -16 -7 -17 -144 -14 l-148 3 0
-24 c0 -13 12 -36 26 -51 35 -34 91 -36 131 -2 19 16 46 25 86 29 34 3 55 2
52 -4 -4 -5 0 -9 8 -9 9 0 13 13 14 40 0 22 -3 38 -7 35 -4 -2 -5 7 -2 20 5
27 -5 34 -14 10z"/>
<path d="M4766 2703 c10 -7 15 -13 11 -13 -4 0 -2 -10 5 -22 7 -13 11 -26 10
-30 -4 -16 15 -7 36 15 16 17 19 26 11 34 -6 6 -18 9 -27 6 -10 -4 -13 -2 -8
5 5 8 2 10 -8 6 -9 -3 -16 -2 -16 3 0 5 -7 10 -16 10 -14 0 -14 -2 2 -14z m50
-22 c8 7 14 7 19 -1 4 -6 1 -9 -7 -8 -7 2 -12 -3 -10 -9 3 -18 -2 -16 -24 10
-10 12 -12 16 -4 10 9 -9 17 -9 26 -2z"/>
<path d="M2400 2596 c0 -2 7 -6 15 -10 8 -3 15 -1 15 4 0 6 -7 10 -15 10 -8 0
-15 -2 -15 -4z"/>
<path d="M4820 2580 c15 -28 27 -32 26 -8 -1 12 -9 22 -18 24 -14 2 -16 -1 -8
-16z"/>
<path d="M2423 2563 c4 -3 2 -12 -4 -19 -7 -8 -7 -14 1 -19 6 -4 9 -1 8 7 -2
7 3 12 11 10 12 -3 12 0 1 12 -7 9 -15 16 -18 16 -3 0 -2 -3 1 -7z"/>
<path d="M4846 2529 c3 -5 9 -7 14 -4 4 3 11 0 13 -5 3 -6 4 -5 3 1 -1 7 -10
13 -19 15 -9 1 -15 -2 -11 -7z"/>
<path d="M2743 1625 c-3 -9 -3 -18 -1 -21 3 -3 8 4 11 16 6 23 -1 27 -10 5z"/>
</g>
</svg>
